<?xml version="1.0" encoding="UTF-8"?>
<svg id="Camada_1" xmlns="http://www.w3.org/2000/svg" version="1.1" viewBox="0 0 76.4 36.6">
  <!-- Generator: Adobe Illustrator 29.8.4, SVG Export Plug-In . SVG Version: 2.1.1 Build 6)  -->
  <defs>
    <style>
      .st0 {
        fill: #ede9da;
      }
    </style>
  </defs>
  <path class="st0" d="M15.6,14.1c1.8-1.6,2.8-3.5,3.5-5.8.1-.4.3-.9.4-1.3,0-.1,0-.4,0-.5,0,0-.5.9-1.3,2-1.7,2.5-3.7,4.8-6.1,6.7l-1.8,1.5h1.8c1.2-.8,2.3-1.6,3.4-2.5"/>
  <path class="st0" d="M18,14.5l-2.4,2.2h1.7c1.6-1.1,3-2.2,4.4-3.6,1.9-1.9,2.9-4.1,3.5-6.7.1-.5.2-1,.3-1.5,0-.1,0-.4,0-.5,0,.1-.6,1.1-1.3,2.4-1.7,2.9-3.8,5.6-6.3,7.8"/>
  <path class="st0" d="M48.7,14.6l-2.3,2.1h1.7c1.5-1.1,2.9-2.2,4.2-3.5,1.9-1.9,2.9-4.1,3.5-6.7.1-.5.2-1,.3-1.5,0-.1,0-.4,0-.5,0,.1-.6,1.1-1.3,2.4-1.7,2.9-3.8,5.6-6.3,7.8"/>
  <path class="st0" d="M53.2,16.6h1.8c1-.6,2-1.3,2.9-2.1,1.8-1.5,2.8-3.2,3.4-5.3.1-.4.2-.8.3-1.2,0-.1,0-.3,0-.4,0,0-.5.9-1.3,1.9-1.6,2.3-3.7,4.4-6.1,6.2l-1.2.9h0Z"/>
  <path class="st0" d="M60.6,16.6h1.6c.5-.3,1-.7,1.5-1.1,1.5-1.2,2.3-2.6,2.8-4.2,0-.3.2-.6.2-1,0,0,0-.3,0-.3,0,0-.4.7-1,1.5-1.3,1.9-3,3.5-5,5l-.2.2h0Z"/>
  <path class="st0" d="M24,13.9l-2.9,2.7h1.9c1.8-1.3,3.6-2.7,5.2-4.4,2.1-2.2,3.3-4.8,4-7.8.1-.6.3-1.2.3-1.8,0-.2,0-.5,0-.6,0,.1-.6,1.3-1.5,2.7-1.9,3.4-4.3,6.5-7.2,9.1"/>
  <path class="st0" d="M29.8,13.8l-3,2.9h1.9c1.9-1.4,3.8-2.9,5.4-4.6,2.2-2.3,3.4-5,4.1-8.1.1-.6.3-1.2.4-1.9,0-.2,0-.5,0-.7,0,.2-.7,1.3-1.5,2.9-2,3.6-4.4,6.8-7.4,9.5"/>
  <path class="st0" d="M42.1,14l-2.7,2.6h1.9c1.8-1.3,3.5-2.7,5-4.3,2.1-2.3,3.3-4.9,4-7.9.1-.6.3-1.2.3-1.8,0-.2,0-.5,0-.6,0,.1-.6,1.3-1.5,2.8-1.9,3.4-4.3,6.6-7.1,9.3"/>
  <path class="st0" d="M35.7,13.9l-2.9,2.8h1.9c1.9-1.3,3.7-2.8,5.3-4.5,2.2-2.3,3.4-5,4.1-8.1.1-.6.3-1.2.4-1.9,0-.2,0-.5,0-.7,0,.1-.7,1.3-1.5,2.9-2,3.6-4.4,6.8-7.4,9.5"/>
  <path class="st0" d="M12.3,20.2h-1.8l1.7,1.4c2.4,1.9,4.4,4.2,6.1,6.7.7,1.1,1.3,2,1.3,2,0-.1,0-.4,0-.5,0-.5-.2-.9-.4-1.3-.7-2.3-1.8-4.2-3.5-5.8-1-.9-2.1-1.7-3.3-2.5"/>
  <path class="st0" d="M17.4,20.2h-1.7l2.3,2.1c2.5,2.3,4.6,4.9,6.3,7.8.7,1.3,1.2,2.2,1.3,2.4,0-.1,0-.4,0-.5,0-.5-.2-1-.3-1.5-.6-2.6-1.7-4.8-3.5-6.7-1.3-1.3-2.7-2.5-4.2-3.5"/>
  <path class="st0" d="M48.3,20.2h-1.7l2.2,2c2.5,2.3,4.6,4.9,6.3,7.8.7,1.3,1.2,2.2,1.3,2.4,0-.1,0-.4,0-.5,0-.5-.2-1-.3-1.5-.6-2.6-1.7-4.8-3.5-6.7-1.2-1.3-2.6-2.4-4.1-3.4"/>
  <path class="st0" d="M58,22.3c-.9-.7-1.8-1.4-2.8-2h-1.9l1.1.8c2.4,1.8,4.4,3.9,6.1,6.2.7,1,1.2,1.8,1.3,1.9,0-.1,0-.3,0-.4,0-.4-.2-.8-.3-1.2-.6-2-1.6-3.8-3.4-5.3"/>
  <path class="st0" d="M65.8,25.3c.6.8,1,1.5,1,1.5,0,0,0-.3,0-.3,0-.3-.2-.6-.2-1-.5-1.6-1.4-3-2.8-4.2-.4-.4-.9-.7-1.3-1h-1.6.1c2,1.5,3.6,3.2,5,5.1"/>
  <path class="st0" d="M21.2,20.2l2.8,2.6c2.8,2.6,5.3,5.7,7.2,9.1.8,1.5,1.4,2.6,1.5,2.8,0-.2,0-.5,0-.6,0-.6-.2-1.2-.3-1.8-.7-3-1.9-5.6-4-7.8-1.5-1.6-3.3-3-5.1-4.3h-1.9,0Z"/>
  <path class="st0" d="M26.8,20.2l2.9,2.8c2.9,2.8,5.4,6,7.4,9.5.8,1.5,1.4,2.7,1.5,2.9,0-.2,0-.5,0-.7,0-.6-.2-1.2-.3-1.9-.7-3.1-2-5.8-4.1-8.1-1.6-1.7-3.4-3.2-5.3-4.5h-1.9,0Z"/>
  <path class="st0" d="M41.4,20.2h-1.9l2.6,2.5c2.8,2.7,5.2,5.8,7.1,9.3.8,1.5,1.4,2.6,1.5,2.8,0-.2,0-.5,0-.6,0-.6-.2-1.2-.3-1.8-.7-3.1-1.9-5.6-4-7.9-1.5-1.6-3.1-2.9-4.9-4.2"/>
  <path class="st0" d="M44.6,35.2c0-.2,0-.4,0-.6,0-.6-.2-1.2-.4-1.9-.7-3.1-2-5.8-4.1-8.1-1.6-1.7-3.3-3.1-5.2-4.4h-2l2.8,2.7c2.9,2.8,5.4,6,7.4,9.5.8,1.4,1.3,2.5,1.5,2.8h0Z"/>
  <path class="st0" d="M6.9,19.2c3.7,0,7.3,0,11-.1,9.6-.1,19.2-.2,28.8-.3,8,0,20.7,0,28.8,0v-.3c-2,0-4-.1-6-.2-11-.4-26.6-.9-37.5-.8-10,0-19.9.1-29.9.3h0c0,.5,0,1,0,1.5,0-.2,4.7,0,5,0"/>
</svg>