<?xml version="1.0" encoding="UTF-8"?>
<svg id="Camada_1" xmlns="http://www.w3.org/2000/svg" version="1.1" viewBox="0 0 47.9 36.6">
  <!-- Generator: Adobe Illustrator 29.8.4, SVG Export Plug-In . SVG Version: 2.1.1 Build 6)  -->
  <defs>
    <style>
      .st0 {
        fill: #ede9da;
      }
    </style>
  </defs>
  <g id="Camada_1-2">
    <path class="st0" d="M45.1,21c-.4-.4-3.3-5.3-9.5-3-3.5,1.3-2.7-1.5-5.8.3.5,1.9.7.4,1.2,2.3-1.8,2.6-3.7,6.5-3.8,10.7-2,.5-3.7.4-4.2,2.3,3.8,0,5.6,1.4,7.7,1.9-.9-3.9-2.3-2.1-2.3-4.6,0-4.2,5.9-6.4,9.6-7.3-.2.9-.3.9-.4,1.9,2.4-.6,2.5-1.6,3.4-3.4,2.2,0,3.2.4,5.7.4-.4-1.1-.5-.6-1.6-1.5Z"/>
    <path class="st0" d="M9.9,15.1c-.4,1.3-1.5,7.2-2.2,7.7-1.1.9-5.6,0-6.5,3.4,2.9,0,4.4.4,6.6,1,4.3,1.3,2.3.4,5.3,2.4,0-6.6-7-4.7-1.2-11.9,2.8-3.5,9.8-6.8,14.2-6.8l-1.5,3.1c5.6-.4,4.2-5.4,6.9-5.4s4.5.8,8,.8v-1.1c-1.7-.4-2.1-.7-3-2-6-8.8-15.1-3.8-16.5-3.8h0c-2,0-3.8-2.4-6.9-.4.4,1.4,1.6,1.8,1.7,3.2.1,1.1-1,2-1.7,3-1.1,1.7-2.5,4.7-3.2,6.8Z"/>
  </g>
</svg>