<?xml version="1.0" encoding="UTF-8"?>
<svg id="Camada_1" xmlns="http://www.w3.org/2000/svg" version="1.1" viewBox="0 0 35.7 36.6">
  <!-- Generator: Adobe Illustrator 29.8.4, SVG Export Plug-In . SVG Version: 2.1.1 Build 6)  -->
  <defs>
    <style>
      .st0 {
        fill: #ede9da;
        fill-rule: evenodd;
      }
    </style>
  </defs>
  <g id="Camada_1-2">
    <g id="_1600382039712">
      <path class="st0" d="M18,1.2s0,.1.1.1c.3.2.4.4.3.7,0,.3-.1.6-.2.9,0,.3-.2.5-.2.8s0,.5.1.7c.1.2,0,.4,0,.7-.1.2-.1.3,0,.5.1.1.2.3.3.5-.2,0-1.2,0-1.3,0,0,0,0,0,0-.1,0-.1.1-.2.2-.3.2-.2.2-.3,0-.6-.1-.1-.2-.3,0-.5.3-.6.2-1.1,0-1.7,0-.3-.1-.5-.2-.8,0-.3,0-.6.3-.7,0,0,0,0,.1-.1h.4Z"/>
      <path class="st0" d="M14.5,8.3c-.2,0-.3,0-.5.2-.3.4-.7.7-1.2.9-.4.2-.8.3-1.2.4-.2,0-.4.2-.5.4-.3.6-.6,1.1-1.1,1.5-.2.2-.5.3-.7.5-.2.1-.3.2-.3.5,0,.5-.2,1.1-.5,1.5-.2.3-.4.6-.7.9-.1.2-.2.4-.2.6,0,.4.1.7,0,1.1,0,.5-.2,1-.4,1.4-.1.2-.1.5,0,.7.4.8.6,1.6.5,2.5,0,.2,0,.4.2.6.4.3.6.7.9,1.1.2.4.3.8.4,1.3,0,.2.2.3.4.4.6.3,1.1.7,1.5,1.2.1.2.3.4.4.6.1.2.3.3.5.3.4,0,.9.2,1.3.4.4.2.8.5,1.1.8.2.1.4.2.6.1.4-.1.9-.1,1.4,0,.4,0,.8.2,1.2.4.2.1.5.1.7,0,.8-.4,1.6-.6,2.5-.5.3,0,.5,0,.7-.2.4-.5.9-.8,1.5-1,.3-.1.6-.2.9-.3.2,0,.3-.1.3-.3,0-.1.1-.2.2-.3.4-.7,1-1.3,1.7-1.6.2-.1.3-.3.3-.5,0-.5.2-1,.5-1.5.2-.3.4-.6.6-.9.2-.2.3-.4.2-.7,0-.1,0-.2,0-.3,0-.8,0-1.5.4-2.1.1-.3.1-.5,0-.7-.1-.3-.3-.6-.4-.9-.2-.6-.2-1.1,0-1.7,0-.2,0-.4-.2-.5-.7-.6-1.1-1.4-1.3-2.3,0-.2-.2-.4-.4-.5-.4-.2-.8-.5-1.2-.8-.3-.3-.5-.6-.7-1-.1-.2-.3-.3-.6-.4-.4,0-.8-.2-1.2-.3-.4-.2-.8-.5-1.2-.8-.2-.2-.3-.2-.6-.2-.6.1-1.2.1-1.8,0-.3,0-.5-.2-.8-.3-.2,0-.4-.1-.6,0-.7.4-1.4.5-2.1.5-.2,0-.4,0-.6,0h0c0,0,0,0,0,0ZM9.2,11.9c0,0,.1,0,.2-.1.5-.4.9-1,1.2-1.6.2-.4.3-.9.6-1.3.5-.7,1.1-1.1,1.8-1.4,0,0,.1,0,.2,0,0,0,0,0,.1,0-.1,0-.2.1-.3.2-.5.3-.9.7-1.1,1.2-.1.2-.2.4-.3.6,0,0,.1,0,.1,0,.8-.3,1.3-.8,1.8-1.4.4-.5.9-.9,1.5-1.2.5-.2,1-.3,1.6-.4,0,0,.2,0,.3,0h0c0,0-.1.1-.1.1-.6.1-1.1.4-1.6.8-.2.1-.3.3-.4.4,0,0,0,0,0,.2,0,0,.1,0,.1,0,.2,0,.5,0,.7-.1.5-.1.9-.4,1.3-.6.4-.2.7-.4,1.1-.6.6-.2,1.2-.3,1.9-.2.2,0,.4,0,.7.1.1,0,.2,0,.3.2-.1,0-.2,0-.2,0-.4,0-.8,0-1.1,0-.5,0-1,.2-1.4.5,0,0,0,0,0,0,0,0,.1,0,.1,0,.6.2,1.1.2,1.7,0,.4,0,.8-.2,1.2-.3.9-.2,1.7,0,2.4.5.1,0,.2.1.4.2,0,0,.1.1.2.1,0,0,0,0,0,0-.2,0-.4-.1-.6-.2-.6-.2-1.2-.2-1.8-.1-.1,0-.2,0-.3.1,0,0,0,.1.1.1.3.2.7.4,1.1.5.3,0,.5.1.8.1.3,0,.6,0,.9.1,1.1.2,1.9.7,2.6,1.5,0,0,0,.1,0,.2-.1,0-.2,0-.2-.1-.4-.2-.8-.5-1.1-.7-.3-.2-.6-.3-1-.3s-.1,0-.2,0c0,0,0,.1.1.2.4.5,1,.9,1.6,1.2.3.1.5.2.8.3.8.4,1.4,1.1,1.8,1.9,0,.1.1.3.2.4,0,0,0,0,0,.1,0,0,0,0,0,0,0,0-.1-.1-.2-.2-.4-.5-.8-1-1.4-1.4-.2,0-.3-.2-.5-.2,0,0,0,.2,0,.2.2.5.4.9.8,1.2.3.2.5.5.8.7.7.6,1.1,1.3,1.3,2.2,0,.3,0,.6,0,1-.1,0-.1-.2-.2-.3-.2-.6-.4-1.1-.8-1.6-.1-.2-.3-.3-.5-.5,0,.1,0,.2,0,.2,0,.6.1,1.1.4,1.6.2.4.4.8.7,1.1.3.5.4,1.1.4,1.7,0,.4,0,.7-.1,1.1,0,.1,0,.2-.2.3,0-.1,0-.2,0-.2,0-.4,0-.9-.1-1.3,0-.3-.2-.7-.4-1,0,0,0,0,0-.1-.2.2-.2.3-.2.4-.1.5,0,1,0,1.6,0,.4.2.7.2,1.1.1.7,0,1.4-.3,2.1-.1.2-.3.5-.4.7,0,0-.1.1-.2.2,0,0,0,0,0,0,0,0,0,0,0-.1.2-.4.3-.9.4-1.3,0-.4,0-.9,0-1.3,0,0,0,0,0,0,0,0,0,0-.1,0-.3.4-.5.9-.6,1.5,0,.3,0,.7,0,1,0,1.2-.7,2.1-1.6,2.8,0,0-.1,0-.1,0h0c0,0,0-.1.1-.2.3-.4.5-.8.7-1.2.1-.3.2-.7.2-1,0,0,0,0,0-.1,0,0-.2.1-.2.2-.6.4-.9,1-1.2,1.7-.2.6-.5,1.1-1,1.6-.4.4-1,.8-1.6,1,0,0-.2,0-.2,0,0-.1,0-.1.1-.2.2-.1.3-.2.5-.3.5-.4.9-.9,1.2-1.5h0c0-.1-.2,0-.2,0-.4.1-.8.3-1.1.7-.3.3-.6.6-.9,1-.5.6-1.2,1-1.9,1.2-.3,0-.6,0-.9.1,0,0-.1,0-.2,0,.9-.3,1.7-.6,2.3-1.4-.1,0-.2,0-.2,0-.5,0-1,.1-1.5.4-.3.2-.6.3-.9.5-.7.4-1.4.6-2.2.6-.5,0-.9,0-1.3-.3,0,0,0,0,0,0,0-.1.2,0,.2,0,.4,0,.8,0,1.2,0,.5,0,.9-.2,1.3-.5,0,0,0,0,0,0,0,0,0,0-.1,0-.6-.2-1.2-.2-1.8,0-.4,0-.8.2-1.2.2-.9.1-1.6,0-2.4-.4-.1,0-.3-.2-.4-.2,0,0-.1,0-.1-.1,0,0,0,0,0,0,.1,0,.2,0,.4,0,.4,0,.8.2,1.3.3.3,0,.7,0,1,0,0,0,0,0,.1,0,0,0,0,0-.1-.1-.5-.4-1.1-.5-1.7-.6-.4,0-.8,0-1.1-.1-.7-.1-1.4-.4-1.9-.9-.2-.2-.4-.4-.5-.6,0,0,0,0,0-.1h0c0,0,.1,0,.2.1.4.3.8.6,1.3.7.3.1.6.2,1,.1,0,0,0-.1-.1-.2-.4-.6-1-.9-1.6-1.2-.4-.2-.9-.3-1.3-.6-.7-.4-1.1-1.1-1.4-1.8,0-.1,0-.2-.1-.3h0c.1-.1.1,0,.2,0,.3.3.6.7.9,1,.3.3.6.5,1,.6h0c-.1-.6-.4-1-.8-1.4-.2-.2-.4-.4-.7-.6-.5-.4-.9-.9-1.2-1.5-.2-.5-.3-1-.3-1.6s0-.1,0-.2c.3.9.6,1.7,1.4,2.3,0,0,0-.1,0-.2,0-.5-.1-1-.4-1.5-.2-.4-.5-.8-.7-1.2-.4-.7-.5-1.5-.4-2.3,0-.2,0-.4.1-.6,0,0,0,0,0-.1h0c0,0,0,.2,0,.3,0,.4,0,.9.2,1.3.1.3.2.6.4.9,0,0,0,0,0,0,0,0,0,0,0,0v-.2c.3-.7.3-1.4,0-2.1-.2-.7-.3-1.4-.1-2.2.1-.5.3-.9.6-1.4,0-.1.1-.2.2-.3,0,0,0,.1,0,.2-.1.3-.2.7-.3,1-.1.5-.1,1,0,1.4,0,0,0,.1,0,.2.2-.2.3-.5.4-.7.2-.4.3-.8.3-1.3,0-.3,0-.6,0-.9.1-.9.5-1.7,1.2-2.3.1-.1.2-.2.3-.3,0,0,0,0,.1,0,0,.1,0,.2-.1.3-.3.4-.5.8-.7,1.3,0,.3-.1.5-.2.8,0,0,0,0,0,.2h0s0,0,0,0Z"/>
      <path class="st0" d="M9.8,9.2c-.1.1-.1.2-.2.2-.2.2-.4.4-.6.7-.1.1-.2.1-.3,0,0-.1,0-.2,0-.3,0-.3,0-.3-.4-.4-.2,0-.4-.2-.5-.4-.2-.5-.6-.8-1-1-.2-.1-.5-.2-.7-.4-.1,0-.3-.2-.3-.4-.2-.3,0-.6.2-.8s.5-.3.8-.1c.2.1.3.3.4.5.1.2.2.4.3.6.2.4.5.8.9.9,0,0,.1,0,.2,0,.2.1.4.3.4.5,0,.2,0,.3.3.3.1,0,.2,0,.3,0,0,0,.2,0,.3.1h0Z"/>
      <path class="st0" d="M26.9,10.2c-.2,0-.9-.8-1-1,.1,0,.2,0,.4-.1,0,0,.1,0,.2,0,.2,0,.3,0,.3-.3,0-.3.2-.4.4-.5.4-.1.7-.4.9-.8.2-.3.3-.5.5-.8,0-.1.1-.2.2-.3.4-.4.9-.3,1.2.2.2.3.1.6-.1.8-.2.2-.5.3-.8.5-.2.1-.5.2-.7.4-.2.2-.4.4-.5.6-.1.3-.3.5-.7.5-.1,0-.2.1-.2.3,0,.2,0,.4-.1.6h0s0,0,0,0Z"/>
      <path class="st0" d="M5.7,17.5c0,.3,0,1.2,0,1.4-.1,0-.2-.1-.3-.2,0,0-.1,0-.2-.1-.2-.1-.2-.1-.4,0-.2.2-.4.2-.7,0-.4-.2-.9-.2-1.3,0-.4.1-.7.2-1.1.3-.3,0-.5,0-.7-.2-.2-.2-.2-.5,0-.8.1-.3.3-.4.6-.4.3,0,.6,0,.9.2.3.1.6.2.9.2.3,0,.5,0,.8-.2.2-.1.4,0,.6,0,.2.2.3.2.5,0,.2-.1.3-.2.5-.3h0Z"/>
      <path class="st0" d="M29.9,18.9v-1.4c.1,0,.2,0,.2.1.1,0,.2.1.3.2.2.1.3.1.5,0,0,0,0,0,0,0,.2,0,.3-.1.5,0,.6.3,1.1.2,1.7,0,.3,0,.6-.2.9-.2.3,0,.6.1.7.4.1.3.1.6,0,.8-.2.2-.4.3-.6.2-.3,0-.6-.1-.9-.2-.2,0-.4-.1-.7-.2-.3,0-.7,0-1,.1-.2.1-.4,0-.6,0,0,0,0,0,0,0-.1-.1-.3-.1-.4,0-.1,0-.2.1-.3.2,0,0-.1,0-.3.1h0Z"/>
      <path class="st0" d="M25.8,27.2c.2-.2.9-.9,1-.9,0,.2.1.3.1.5,0,.3,0,.3.3.4.2,0,.4.1.4.3.2.6.7,1,1.3,1.2.2.1.5.3.7.4,0,0,.2.1.2.2.2.3.1.7-.2.9-.3.2-.6.2-.9,0-.2-.2-.3-.4-.5-.7-.1-.2-.3-.5-.4-.7-.2-.3-.5-.5-.8-.6-.2,0-.4-.3-.4-.5,0-.2,0-.3-.3-.3-.2,0-.3,0-.5-.1,0,0,0,0-.1,0h0s0,0,0,0Z"/>
      <path class="st0" d="M17.1,30.2h1.4c0,.1,0,.2,0,.2,0,.1-.1.2-.2.3-.1.1-.1.3,0,.4.2.2.2.5,0,.8-.2.4-.2.7,0,1.1,0,.4.2.7.3,1.1,0,0,0,.2,0,.3,0,.3-.1.6-.4.7s-.7,0-.8-.2c-.1-.1-.1-.3-.1-.5,0-.3,0-.5.2-.8,0-.2.1-.5.2-.7,0-.3,0-.7-.1-.9-.1-.3,0-.5,0-.7.1-.2.1-.2,0-.4,0-.1-.2-.2-.3-.4,0,0,0,0,0-.2h0s0,0,0,0Z"/>
      <path class="st0" d="M8.8,26.2c.3.3.7.7,1,1,0,.1-.2.1-.3.1-.1,0-.2,0-.4,0-.1,0-.2.1-.2.2,0,.3-.2.5-.5.6-.4.1-.7.4-.9.8-.1.2-.2.5-.4.7,0,.1-.2.3-.3.4-.3.3-.7.3-1,0-.3-.3-.3-.7,0-1,.2-.2.5-.3.8-.5.2-.1.4-.2.5-.3.3-.2.5-.5.7-.8,0-.2.3-.4.5-.4.3,0,.3-.1.4-.4,0-.1,0-.2,0-.4,0,0,0,0,0-.1h0s0,0,0,0Z"/>
      <path class="st0" d="M16.2,15.1c0,0,0,0,0,0h0c.3,0,.6-.1.8-.3.3-.2.6-.5.9-.7.6-.4,1.3-.6,2-.4,1,.3,1.8.8,2.5,1.6.2.2.4.5.6.8,0,0,0,.1.1.1.1-.5,0-.9-.1-1.4-.2-.4-.4-.7-.7-1-.1-.1-.2-.3-.2-.4,0-.2-.1-.3-.2-.5-.2-.4-.5-.7-.9-.9-.7-.4-1.5-.7-2.3-.8-.7-.1-1.4-.1-2.1,0-.3,0-.7.1-1.1.2-.5,0-1,0-1.5-.1-.3-.1-.6,0-.9,0,0,0,0,0,0,0h0c.1.1.3.2.4.3.2.2.2.4,0,.6-.1.2-.3.3-.4.4-1.5,1.2-2.4,2.7-2.6,4.6-.2,1.3,0,2.5.4,3.7.5,1.2,1.3,2.3,2.4,3,.9.7,1.9,1,2.9,1.2h.2s0,0,0,0c0,0-.1,0-.2,0-.7-.3-1.4-.7-1.9-1.3-.9-.9-1.4-2-1.6-3.3-.2-1.4,0-2.7.8-3.9.5-.9,1.3-1.6,2.1-2.2.2-.1.4,0,.6,0,0,0,0,.1,0,.1,0,.2,0,.3-.2.5,0,0-.1.1-.2.2h0,0ZM26.7,18.2c0,4.9-3.9,8.9-8.9,8.9s-8.9-4-8.9-9,4.1-8.9,8.9-8.9c4.9,0,8.9,4,8.9,8.9h0Z"/>
    </g>
  </g>
</svg>